<svg xmlns="http://www.w3.org/2000/svg">
    <symbol id="heart-icon" fill="currentColor">
        <g id="heart">
            <path id="Vector" d="M6 0H3v3h3z"/>
            <path id="Vector_2" d="M9 0H6v3h3z"/>
            <path id="Vector_3" d="M3 3H0v3h3z"/>
            <path id="Vector_4" d="M3 6H0v3h3z"/>
            <path id="Vector_5" d="M3 9H0v3h3z"/>
            <path id="Vector_6" d="M12 0H9v3h3z"/>
            <path id="Vector_7" d="M6 12H3v3h3z"/>
            <path id="Vector_8" d="M9 15H6v3h3z"/>
            <path id="Vector_9" d="M12 18H9v3h3z"/>
            <path id="Vector_10" d="M21 0h3v3h-3z"/>
            <path id="Vector_11" d="M18 0h3v3h-3z"/>
            <path id="Vector_12" d="M24 3h3v3h-3z"/>
            <path id="Vector_13" d="M24 6h3v3h-3z"/>
            <path id="Vector_14" d="M24 9h3v3h-3z"/>
            <path id="Vector_15" d="M15 0h3v3h-3z"/>
            <path id="Vector_16" d="M21 12h3v3h-3z"/>
            <path id="Vector_17" d="M18 15h3v3h-3z"/>
            <path id="Vector_18" d="M15 18h3v3h-3z"/>
            <path id="Vector_19" d="M15 3h-3v3h3z"/>
            <path id="Vector_20" d="M15 21h-3v3h3z"/>
        </g>
    </symbol>
</svg>